<svg width="27" height="25" viewBox="0 0 27 25" fill="none" xmlns="http://www.w3.org/2000/svg">
<g id="Cash Icon">
<g id="cash">
<path id="Vector" d="M23.7482 10.6667C23.5954 10.6219 23.4369 10.5995 23.2777 10.6001H2.85867C2.38776 10.6001 1.93613 10.7872 1.60315 11.1202C1.27017 11.4531 1.0831 11.9048 1.0831 12.3757V22.1413C1.08378 22.5297 1.21178 22.9071 1.4475 23.2158C1.68322 23.5245 2.01364 23.7474 2.38814 23.8503C2.54095 23.8951 2.69944 23.9175 2.85867 23.9169H23.2777C23.7486 23.9169 24.2002 23.7298 24.5332 23.3968C24.8662 23.0638 25.0533 22.6122 25.0533 22.1413V12.3757C25.0526 11.9873 24.9246 11.6098 24.6889 11.3012C24.4532 10.9925 24.1227 10.7696 23.7482 10.6667ZM23.2777 20.3657C22.8068 20.3657 22.3552 20.5528 22.0222 20.8858C21.6892 21.2188 21.5021 21.6704 21.5021 22.1413H4.63424C4.63424 21.6704 4.44717 21.2188 4.11418 20.8858C3.7812 20.5528 3.32958 20.3657 2.85867 20.3657V14.1512C3.32958 14.1512 3.7812 13.9642 4.11418 13.6312C4.44717 13.2982 4.63424 12.8466 4.63424 12.3757H21.5021C21.5021 12.8466 21.6892 13.2982 22.0222 13.6312C22.3552 13.9642 22.8068 14.1512 23.2777 14.1512V20.3657Z" fill="#0E9347"/>
<path id="Vector_2" d="M23.2777 14.1513V20.3658C22.8068 20.3658 22.3552 20.5529 22.0222 20.8858C21.6892 21.2188 21.5021 21.6704 21.5021 22.1414H4.63424C4.63424 21.6704 4.44717 21.2188 4.11419 20.8858C3.78121 20.5529 3.32958 20.3658 2.85867 20.3658V14.1513C3.32958 14.1513 3.78121 13.9642 4.11419 13.6312C4.44717 13.2983 4.63424 12.8466 4.63424 12.3757H21.5021C21.5021 12.8466 21.6892 13.2983 22.0222 13.6312C22.3552 13.9642 22.8068 14.1513 23.2777 14.1513Z" fill="#3BB54A"/>
<path id="Vector_3" d="M23.7482 10.6669C23.5954 10.6221 23.4369 10.5997 23.2777 10.6003H21.6619L20.2015 8.07012L19.4691 6.80059C19.0933 7.01784 18.651 7.08994 18.2257 7.00324C17.8004 6.91655 17.4216 6.67707 17.1609 6.33006C17.1249 6.27586 17.0923 6.21953 17.0632 6.16138L9.33062 10.6003H5.77948L15.5451 4.95844L17.3207 3.93305L17.6847 3.72442C17.8876 3.6072 18.1117 3.53131 18.3441 3.50112C18.5765 3.47093 18.8125 3.48705 19.0387 3.54853C19.2648 3.61002 19.4765 3.71566 19.6616 3.85936C19.8467 4.00306 20.0016 4.18199 20.1172 4.38582L23.7482 10.6669Z" fill="#0E9347"/>
<path id="Vector_4" d="M21.6619 10.6001H9.33063L17.0632 6.16113C17.099 6.22444 17.1391 6.28525 17.1831 6.34313C17.4438 6.69013 17.8226 6.92961 18.2479 7.01631C18.6732 7.103 19.1156 7.03091 19.4913 6.81365L20.2237 8.08319L21.6619 10.6001Z" fill="#3BB54A"/>
<path id="Vector_5" d="M17.3296 3.9419L15.554 4.96729L11.9318 2.87656C11.6954 3.28042 11.3091 3.57461 10.8569 3.69514C10.4047 3.81567 9.92315 3.7528 9.51706 3.5202L5.4155 10.6003H3.36472L8.85566 1.09211C8.9724 0.888804 9.12824 0.710627 9.3142 0.567864C9.50016 0.425101 9.71255 0.320577 9.93912 0.260325C10.1657 0.200073 10.4019 0.185285 10.6342 0.216815C10.8666 0.248345 11.0903 0.325568 11.2926 0.444029L17.3296 3.9419Z" fill="#0E9347"/>
<path id="Vector_6" d="M13.0682 20.3659C14.5391 20.3659 15.7316 18.9747 15.7316 17.2586C15.7316 15.5425 14.5391 14.1514 13.0682 14.1514C11.5973 14.1514 10.4048 15.5425 10.4048 17.2586C10.4048 18.9747 11.5973 20.3659 13.0682 20.3659Z" fill="#89C763"/>
<path id="Vector_7" d="M15.554 4.95865L5.78393 10.6005H5.4155L9.51706 3.52044C9.71926 3.63733 9.94253 3.71317 10.1741 3.74364C10.4056 3.7741 10.6409 3.75858 10.8665 3.69796C11.092 3.63735 11.3034 3.53283 11.4885 3.3904C11.6736 3.24797 11.8288 3.07042 11.9451 2.86792L15.554 4.95865Z" fill="#3BB54A"/>
</g>
</g>
</svg>
