<svg width="64" height="64" viewBox="0 0 64 64" fill="none" xmlns="http://www.w3.org/2000/svg">
<g id="Expense" clip-path="url(#clip0_1_93)">
<g id="cash">
<path id="Vector" d="M60.5155 28.6222C60.1075 28.5027 59.6844 28.4428 59.2592 28.4444H4.74074C3.48342 28.4444 2.27759 28.9439 1.38853 29.833C0.499469 30.722 0 31.9278 0 33.1852V59.2592C0.00181351 60.2962 0.343586 61.304 0.972945 62.1282C1.6023 62.9523 2.48453 63.5474 3.48444 63.8222C3.89245 63.9417 4.31559 64.0016 4.74074 64H59.2592C60.5166 64 61.7224 63.5005 62.6114 62.6114C63.5005 61.7224 64 60.5166 64 59.2592V33.1852C63.9982 32.1482 63.6564 31.1404 63.027 30.3162C62.3977 29.4921 61.5154 28.897 60.5155 28.6222ZM59.2592 54.5185C58.0019 54.5185 56.7961 55.018 55.907 55.907C55.018 56.7961 54.5185 58.0019 54.5185 59.2592H9.48148C9.48148 58.0019 8.98201 56.7961 8.09295 55.907C7.20389 55.018 5.99806 54.5185 4.74074 54.5185V37.9259C5.99806 37.9259 7.20389 37.4264 8.09295 36.5374C8.98201 35.6483 9.48148 34.4425 9.48148 33.1852H54.5185C54.5185 34.4425 55.018 35.6483 55.907 36.5374C56.7961 37.4264 58.0019 37.9259 59.2592 37.9259V54.5185Z" fill="#0E9347"/>
<path id="Vector_2" d="M59.2592 37.9259V54.5185C58.0019 54.5185 56.7961 55.018 55.907 55.907C55.018 56.7961 54.5185 58.0019 54.5185 59.2592H9.48149C9.48149 58.0019 8.98202 56.7961 8.09296 55.907C7.2039 55.018 5.99808 54.5185 4.74075 54.5185V37.9259C5.99808 37.9259 7.2039 37.4264 8.09296 36.5374C8.98202 35.6483 9.48149 34.4425 9.48149 33.1852H54.5185C54.5185 34.4425 55.018 35.6483 55.907 36.5374C56.7961 37.4264 58.0019 37.9259 59.2592 37.9259Z" fill="#3BB54A"/>
<path id="Vector_3" d="M60.5155 28.6222C60.1075 28.5027 59.6844 28.4428 59.2592 28.4444H54.9452L51.0459 21.6889L49.0903 18.2993C48.0871 18.8793 46.9061 19.0718 45.7705 18.8403C44.635 18.6089 43.6236 17.9694 42.9274 17.043C42.8314 16.8982 42.7444 16.7478 42.6666 16.5926L22.0207 28.4444H12.5392L38.6133 13.3807L43.3541 10.643L44.3259 10.0859C44.8677 9.77295 45.4661 9.57033 46.0865 9.48973C46.707 9.40913 47.3373 9.45215 47.9411 9.61631C48.5448 9.78047 49.1101 10.0625 49.6044 10.4462C50.0986 10.8299 50.512 11.3076 50.8207 11.8518L60.5155 28.6222Z" fill="#0E9347"/>
<path id="Vector_4" d="M54.9452 28.4444H22.0207L42.6666 16.5926C42.7622 16.7616 42.8691 16.924 42.9866 17.0785C43.6828 18.005 44.6942 18.6444 45.8298 18.8759C46.9653 19.1074 48.1463 18.9149 49.1496 18.3348L51.1052 21.7244L54.9452 28.4444Z" fill="#3BB54A"/>
<path id="Vector_5" d="M43.3778 10.6667L38.6371 13.4044L28.966 7.82222C28.3346 8.90053 27.3031 9.686 26.0958 10.0078C24.8884 10.3296 23.6028 10.1618 22.5185 9.54074L11.5674 28.4444H6.09189L20.7526 3.05778C21.0643 2.51495 21.4804 2.03922 21.9769 1.65804C22.4734 1.27687 23.0405 0.997791 23.6454 0.836919C24.2504 0.676047 24.8811 0.636563 25.5014 0.720748C26.1217 0.804932 26.7191 1.01112 27.2593 1.32741L43.3778 10.6667Z" fill="#0E9347"/>
<path id="Vector_6" d="M31 54C35.4183 54 39 50.4183 39 46C39 41.5817 35.4183 38 31 38C26.5817 38 23 41.5817 23 46C23 50.4183 26.5817 54 31 54Z" fill="white" fill-opacity="0.2"/>
<path id="Vector_7" d="M38.637 13.3807L12.5511 28.4444H11.5674L22.5185 9.54074C23.0584 9.85282 23.6545 10.0553 24.2728 10.1367C24.891 10.218 25.5193 10.1766 26.1215 10.0147C26.7237 9.85288 27.2881 9.57382 27.7823 9.19353C28.2765 8.81324 28.6908 8.33918 29.0015 7.79852L38.637 13.3807Z" fill="#3BB54A"/>
<path id="Vector 2" d="M27 46H35" stroke="white" stroke-linecap="round"/>
</g>
</g>
<defs>
<clipPath id="clip0_1_93">
<rect width="64" height="64" fill="white"/>
</clipPath>
</defs>
</svg>
