<svg width="64" height="64" viewBox="0 0 64 64" fill="none" xmlns="http://www.w3.org/2000/svg">
<g id="Food-Dining" clip-path="url(#clip0_1_118)">
<g id="Icons">
<path id="Vector" d="M31.9862 63.7628C49.5176 63.7628 63.7296 49.5507 63.7296 32.0193C63.7296 14.4879 49.5176 0.275862 31.9862 0.275862C14.4548 0.275862 0.242737 14.4879 0.242737 32.0193C0.242737 49.5507 14.4548 63.7628 31.9862 63.7628Z" fill="#41C0E3"/>
<path id="Vector_2" d="M31.9862 60.8359C47.9012 60.8359 60.8028 47.9342 60.8028 32.0193C60.8028 16.1044 47.9012 3.20275 31.9862 3.20275C16.0713 3.20275 3.16968 16.1044 3.16968 32.0193C3.16968 47.9342 16.0713 60.8359 31.9862 60.8359Z" fill="white"/>
<path id="Vector_3" d="M30.8304 53.6496C42.7765 53.6496 52.4607 43.9654 52.4607 32.0193C52.4607 20.0732 42.7765 10.389 30.8304 10.389C18.8842 10.389 9.20001 20.0732 9.20001 32.0193C9.20001 43.9654 18.8842 53.6496 30.8304 53.6496Z" fill="#DDD7D7"/>
<path id="Vector_4" d="M12.3765 34.5145C16.56 35.5145 27.782 37.1476 46.2455 32.4386C47.0857 32.2262 47.9753 32.3422 48.7329 32.7631C49.4905 33.1839 50.0591 33.8779 50.3227 34.7034C51.3503 37.8924 51.5558 42.8579 44.6096 45.6C42.8515 46.2949 41.1585 47.1442 39.5503 48.1379C35.1227 50.8621 25.6786 55.24 18.171 48.8814C16.7165 47.6318 15.1598 46.5065 13.5172 45.5172C10.4234 43.6841 6.06893 40.1738 8.7241 35.9821C9.10405 35.3873 9.66032 34.9262 10.3152 34.6631C10.97 34.3999 11.6907 34.348 12.3765 34.5145Z" fill="#9E4830"/>
<path id="Vector_5" d="M44.4552 45.5945C42.6971 46.2925 41.0037 47.1436 39.3945 48.1379C34.9683 50.8634 25.5228 55.2414 18.0152 48.8827C16.5605 47.633 15.0038 46.5073 13.3614 45.5172C10.389 43.7559 6.26071 40.4496 8.28554 36.4772C9.29658 38.5076 11.5449 40.16 13.3614 41.2372C15.0024 42.2244 16.5578 43.3474 18.0111 44.5945C25.5228 50.9517 34.9683 46.5752 39.3904 43.851C40.9989 42.857 42.6924 42.0077 44.4511 41.3131C48.1586 39.851 49.8304 37.7545 50.4221 35.6331C51.1724 38.7945 50.7586 43.1117 44.4552 45.5945Z" fill="#873B29"/>
<path id="Vector_6" d="M22.2234 45.4621C26.1283 45.371 36.36 44.2069 51.4841 35.7945C52.1724 35.414 52.9798 35.3102 53.7419 35.5042C54.504 35.6982 55.1636 36.1754 55.5862 36.8386C57.2276 39.4014 58.5586 43.7145 53.0924 47.7255C51.7113 48.744 50.4227 49.8822 49.2414 51.1269C45.9862 54.5448 38.7062 60.5765 30.6358 56.7324C29.0706 55.9746 27.4447 55.349 25.7751 54.8621C22.6331 53.9683 18.0014 51.8938 19.3572 47.5986C19.5534 46.9886 19.9349 46.4549 20.4486 46.0719C20.9624 45.689 21.5828 45.4758 22.2234 45.4621Z" fill="#A65C3B"/>
<path id="Vector_7" d="M53.0938 47.7241C51.7125 48.7434 50.4234 49.8821 49.2414 51.1269C45.9848 54.5434 38.7062 60.5765 30.6359 56.7324C29.0708 55.9742 27.4448 55.3485 25.7752 54.8621C22.6883 53.9848 18.1614 51.9655 19.2924 47.8207C20.3641 49.9917 23.3241 51.211 25.5407 51.8414C27.2104 52.3277 28.8364 52.9533 30.4014 53.7117C38.4703 57.5545 45.7503 51.5228 49.0069 48.1048C50.1896 46.8605 51.4796 45.7227 52.8621 44.7048C55.3531 42.8759 56.4331 40.9807 56.7131 39.2262C57.4552 41.6814 57.1034 44.7848 53.0938 47.7241Z" fill="#9E4830"/>
<path id="Vector_8" d="M7.91861 15.7945C6.51447 17.3669 4.49792 18.6524 4.0993 20.5765C3.68551 22.5628 5.06482 24.56 5.69103 26.4869C6.30482 28.3545 6.35309 30.7779 7.92551 32.1821C9.49792 33.5862 11.9117 33.36 13.8372 33.7586C15.8234 34.1724 17.9614 35.3076 19.8883 34.6745C21.7559 34.0607 22.8055 31.9159 24.2083 30.3393C25.611 28.7628 27.629 27.4828 28.0276 25.5572C28.4414 23.571 27.069 21.5752 26.4359 19.6483C25.8221 17.7807 25.7738 15.3559 24.2014 13.9531C22.629 12.5503 20.2152 12.7752 18.2896 12.3752C16.3034 11.9614 14.1655 10.8276 12.2386 11.4607C10.371 12.0745 9.32137 14.2234 7.91861 15.7945Z" fill="#E88032"/>
<path id="Vector_9" d="M9.81378 17.4883C8.73654 18.6938 7.19309 19.68 6.88275 21.1572C6.56688 22.6745 7.6193 24.2124 8.10482 25.691C8.57654 27.1241 8.6124 28.9834 9.8193 30.0607C11.0262 31.1379 12.8772 30.9641 14.3545 31.2703C15.8786 31.5862 17.5186 32.4579 18.9972 31.9724C20.4303 31.5021 21.2345 29.8524 22.3076 28.6469C23.3807 27.4414 24.9283 26.4552 25.2386 24.9779C25.5545 23.4538 24.5021 21.9228 24.0165 20.4441C23.5448 19.011 23.509 17.1517 22.3021 16.0745C21.0952 14.9972 19.2441 15.171 17.7669 14.8648C16.2427 14.549 14.6027 13.6759 13.1241 14.1628C11.6952 14.6331 10.8965 16.2759 9.81378 17.4883Z" fill="#C46627"/>
<path id="Vector_10" d="M21.1186 33.9876C20.7534 34.2897 20.3366 34.5233 19.8883 34.6772C17.9572 35.3103 15.8221 34.1738 13.8359 33.7614C11.9048 33.3627 9.49793 33.589 7.92552 32.1848C6.35311 30.7807 6.30483 28.3545 5.69104 26.4827C5.05793 24.5517 3.6869 22.56 4.09931 20.5738C4.49793 18.6427 6.51449 17.3641 7.91862 15.7931C9.32276 14.2221 10.371 12.069 12.2372 11.4579C13.8731 10.9214 15.6607 11.6565 17.3779 12.1476C16.6883 12.6993 16.1035 13.4621 15.5214 14.2372C15.1214 14.771 14.72 15.3103 14.28 15.7972C12.8772 17.3683 10.8607 18.6524 10.4621 20.5779C10.0483 22.5641 11.4207 24.5614 12.0538 26.4869C12.5338 27.9476 12.6676 29.7476 13.4538 31.1352C13.671 31.5272 13.9505 31.8812 14.2814 32.1834C15.8524 33.5876 18.2676 33.3614 20.1917 33.76C20.5076 33.8221 20.811 33.9007 21.1186 33.9876Z" fill="#D3702D"/>
<path id="Vector_11" d="M15.5214 14.2359C15.1214 14.7697 14.72 15.309 14.28 15.7959C12.8772 17.3669 10.8607 18.651 10.4621 20.5766C10.0483 22.5628 11.4207 24.56 12.0538 26.4855C12.5338 27.9462 12.6676 29.7462 13.4538 31.1338C12.1779 30.9834 10.7848 30.9283 9.8124 30.0607C8.60689 28.9834 8.57103 27.1241 8.09792 25.691C7.61378 24.2124 6.55999 22.6814 6.87585 21.1559C7.18344 19.68 8.72965 18.6938 9.80827 17.4883C10.8869 16.2828 11.6883 14.6331 13.1186 14.1614C13.8952 13.9103 14.7062 14.0234 15.5214 14.2359Z" fill="#AD5A21"/>
<path id="Vector_12" d="M47.9572 13.9559C47.8786 13.9559 47.8027 13.9738 47.7269 13.9876C47.9219 12.7137 47.7776 11.4109 47.3084 10.2106C46.8392 9.01034 46.0618 7.95499 45.0546 7.15105C44.0474 6.3471 42.846 5.82297 41.5716 5.63154C40.2972 5.4401 38.9948 5.58813 37.7958 6.06068C37.1665 5.44965 36.3812 5.02365 35.5258 4.82936C34.6704 4.63508 33.7781 4.68 32.9466 4.95922C32.115 5.23843 31.3764 5.74116 30.8117 6.41231C30.2469 7.08346 29.8778 7.89712 29.7448 8.76413C29.2978 8.461 28.7846 8.26939 28.2483 8.20534C27.712 8.14129 27.1682 8.20666 26.6623 8.396C26.1565 8.58533 25.7034 8.8931 25.3409 9.29355C24.9785 9.69399 24.7173 10.1754 24.5792 10.6976C24.441 11.2198 24.43 11.7674 24.547 12.2947C24.6641 12.822 24.9057 13.3135 25.2518 13.7282C25.5978 14.1429 26.0382 14.4686 26.536 14.6782C27.0339 14.8877 27.5746 14.9748 28.1131 14.9324C27.7413 16.3578 27.8078 17.8621 28.3038 19.2492C28.7997 20.6362 29.7022 21.8416 30.8935 22.7081C32.0847 23.5746 33.5095 24.062 34.9819 24.1067C36.4543 24.1514 37.9059 23.7513 39.1476 22.9586C39.7286 23.6957 40.514 24.2452 41.4055 24.5386C42.297 24.832 43.2552 24.8563 44.1605 24.6083C45.0657 24.3604 45.8778 23.8513 46.4954 23.1445C47.113 22.4378 47.5087 21.5648 47.6331 20.6345C47.9658 20.701 48.3065 20.7178 48.6441 20.6841C49.0859 20.6396 49.5146 20.5084 49.9057 20.2982C50.2968 20.088 50.6427 19.8028 50.9235 19.4589C51.2044 19.115 51.4148 18.7191 51.5427 18.2939C51.6706 17.8687 51.7135 17.4225 51.6689 16.9807C51.6244 16.5389 51.4932 16.1102 51.283 15.7191C51.0728 15.328 50.7876 14.9821 50.4437 14.7013C50.0998 14.4204 49.7039 14.21 49.2787 14.0821C48.8535 13.9542 48.4073 13.9113 47.9655 13.9559H47.9572Z" fill="#00B564"/>
<path id="Vector_13" d="M36.6318 10.7517C37.4331 10.7517 38.0828 10.1021 38.0828 9.30069C38.0828 8.49931 37.4331 7.84966 36.6318 7.84966C35.8304 7.84966 35.1807 8.49931 35.1807 9.30069C35.1807 10.1021 35.8304 10.7517 36.6318 10.7517Z" fill="#38C487"/>
<path id="Vector_14" d="M29.378 13.389C30.1794 13.389 30.829 12.7393 30.829 11.9379C30.829 11.1365 30.1794 10.4869 29.378 10.4869C28.5766 10.4869 27.9269 11.1365 27.9269 11.9379C27.9269 12.7393 28.5766 13.389 29.378 13.389Z" fill="#38C487"/>
<path id="Vector_15" d="M31.9862 18.7117C32.7876 18.7117 33.4372 18.0621 33.4372 17.2607C33.4372 16.4593 32.7876 15.8097 31.9862 15.8097C31.1848 15.8097 30.5352 16.4593 30.5352 17.2607C30.5352 18.0621 31.1848 18.7117 31.9862 18.7117Z" fill="#38C487"/>
<path id="Vector_16" d="M33.7283 22.5752C34.5296 22.5752 35.1793 21.9255 35.1793 21.1241C35.1793 20.3228 34.5296 19.6731 33.7283 19.6731C32.9269 19.6731 32.2772 20.3228 32.2772 21.1241C32.2772 21.9255 32.9269 22.5752 33.7283 22.5752Z" fill="#38C487"/>
<path id="Vector_17" d="M43.7531 22.5752C44.5545 22.5752 45.2041 21.9255 45.2041 21.1241C45.2041 20.3228 44.5545 19.6731 43.7531 19.6731C42.9517 19.6731 42.3021 20.3228 42.3021 21.1241C42.3021 21.9255 42.9517 22.5752 43.7531 22.5752Z" fill="#38C487"/>
<path id="Vector_18" d="M34.309 15.469C35.1104 15.469 35.76 14.8193 35.76 14.0179C35.76 13.2165 35.1104 12.5669 34.309 12.5669C33.5076 12.5669 32.858 13.2165 32.858 14.0179C32.858 14.8193 33.5076 15.469 34.309 15.469Z" fill="#38C487"/>
<path id="Vector_19" d="M42.302 10.0979C43.1034 10.0979 43.7531 9.44828 43.7531 8.6469C43.7531 7.84552 43.1034 7.19587 42.302 7.19587C41.5007 7.19587 40.851 7.84552 40.851 8.6469C40.851 9.44828 41.5007 10.0979 42.302 10.0979Z" fill="#38C487"/>
<path id="Vector_20" d="M39.5558 14.0179C40.3572 14.0179 41.0069 13.3683 41.0069 12.5669C41.0069 11.7655 40.3572 11.1159 39.5558 11.1159C38.7544 11.1159 38.1048 11.7655 38.1048 12.5669C38.1048 13.3683 38.7544 14.0179 39.5558 14.0179Z" fill="#38C487"/>
<path id="Vector_21" d="M47.9545 18.7117C48.7558 18.7117 49.4055 18.0621 49.4055 17.2607C49.4055 16.4593 48.7558 15.8097 47.9545 15.8097C47.1531 15.8097 46.5034 16.4593 46.5034 17.2607C46.5034 18.0621 47.1531 18.7117 47.9545 18.7117Z" fill="#38C487"/>
<path id="Vector_22" d="M38.069 18.7117C38.8703 18.7117 39.52 18.0621 39.52 17.2607C39.52 16.4593 38.8703 15.8097 38.069 15.8097C37.2676 15.8097 36.6179 16.4593 36.6179 17.2607C36.6179 18.0621 37.2676 18.7117 38.069 18.7117Z" fill="#38C487"/>
<path id="Vector_23" d="M44.4704 14.84C45.2718 14.84 45.9214 14.1904 45.9214 13.389C45.9214 12.5876 45.2718 11.9379 44.4704 11.9379C43.669 11.9379 43.0193 12.5876 43.0193 13.389C43.0193 14.1904 43.669 14.84 44.4704 14.84Z" fill="#38C487"/>
<path id="Vector_24" d="M42.302 18.8083C43.1034 18.8083 43.7531 18.1586 43.7531 17.3572C43.7531 16.5559 43.1034 15.9062 42.302 15.9062C41.5007 15.9062 40.851 16.5559 40.851 17.3572C40.851 18.1586 41.5007 18.8083 42.302 18.8083Z" fill="#38C487"/>
<path id="Vector_25" d="M32.2759 10.0979C33.0772 10.0979 33.7269 9.44828 33.7269 8.6469C33.7269 7.84552 33.0772 7.19587 32.2759 7.19587C31.4745 7.19587 30.8248 7.84552 30.8248 8.6469C30.8248 9.44828 31.4745 10.0979 32.2759 10.0979Z" fill="#38C487"/>
<path id="Vector_26" d="M39.52 22.5752C40.3214 22.5752 40.971 21.9255 40.971 21.1241C40.971 20.3228 40.3214 19.6731 39.52 19.6731C38.7186 19.6731 38.069 20.3228 38.069 21.1241C38.069 21.9255 38.7186 22.5752 39.52 22.5752Z" fill="#38C487"/>
<path id="Vector_27" d="M55.0085 16.168L52.4755 14.2971C52.2445 14.1265 51.9189 14.1754 51.7483 14.4064L40.7944 29.2369C40.6237 29.4679 40.6727 29.7935 40.9037 29.9641L43.4366 31.835C43.6676 32.0056 43.9932 31.9566 44.1639 31.7256L55.1178 16.8952C55.2884 16.6642 55.2395 16.3386 55.0085 16.168Z" fill="#E88032"/>
<path id="Vector_28" d="M41.9531 30.7407L40.9021 29.9641C40.8473 29.9237 40.801 29.8728 40.7658 29.8144C40.7307 29.7561 40.7074 29.6913 40.6973 29.624C40.6872 29.5566 40.6904 29.4879 40.7069 29.4218C40.7233 29.3556 40.7526 29.2934 40.7931 29.2386L51.7462 14.4083C51.8283 14.2972 51.951 14.2232 52.0875 14.2025C52.2241 14.1818 52.3632 14.2161 52.4745 14.2979L53.5255 15.0745C53.4143 14.9927 53.2751 14.9584 53.1386 14.979C53.002 14.9997 52.8793 15.0737 52.7973 15.1848L41.8428 30.0138C41.7614 30.125 41.7273 30.2638 41.748 30.4C41.7687 30.5362 41.8424 30.6587 41.9531 30.7407Z" fill="#D16A24"/>
<path id="Vector_29" d="M59.235 23.994L58.4876 20.9351C58.4194 20.6561 58.138 20.4852 57.859 20.5533L39.9486 24.9294C39.6696 24.9975 39.4987 25.2789 39.5669 25.5579L40.3143 28.6169C40.3824 28.8959 40.6639 29.0668 40.9428 28.9986L58.8532 24.6226C59.1322 24.5544 59.3031 24.273 59.235 23.994Z" fill="#E88032"/>
<path id="Vector_30" d="M39.8828 26.829L39.5724 25.5586C39.54 25.4247 39.562 25.2835 39.6336 25.1658C39.7053 25.0481 39.8207 24.9637 39.9545 24.931L57.8635 20.5517C57.9975 20.5193 58.139 20.5412 58.2568 20.6128C58.3747 20.6845 58.4594 20.7999 58.4924 20.9338L58.8028 22.2028C58.7698 22.0689 58.685 21.9536 58.5671 21.8822C58.4492 21.8108 58.3077 21.7892 58.1738 21.8221L40.2635 26.2069C40.1313 26.2402 40.0174 26.324 39.9462 26.4403C39.8751 26.5566 39.8523 26.6961 39.8828 26.829Z" fill="#D16A24"/>
<path id="Vector_31" d="M60.2063 32.7191L60.3371 29.5728C60.349 29.2859 60.1261 29.0436 59.8392 29.0317L41.4178 28.2661C41.1309 28.2541 40.8886 28.4771 40.8767 28.764L40.7459 31.9103C40.734 32.1972 40.9569 32.4395 41.2439 32.4514L59.6652 33.217C59.9521 33.229 60.1944 33.006 60.2063 32.7191Z" fill="#E88032"/>
<path id="Vector_32" d="M40.8276 30.069L40.8814 28.7641C40.8871 28.6264 40.9473 28.4966 41.0487 28.4033C41.15 28.3099 41.2843 28.2606 41.4221 28.2662L59.8427 29.0331C59.9111 29.0358 59.9782 29.0519 60.0402 29.0805C60.1023 29.1091 60.1581 29.1497 60.2045 29.1999C60.2509 29.2501 60.2869 29.309 60.3105 29.3732C60.3341 29.4373 60.3448 29.5055 60.3421 29.5738L60.2883 30.8786C60.2931 30.7409 60.2434 30.6068 60.1499 30.5055C60.0564 30.4043 59.9267 30.344 59.789 30.3379L41.3683 29.571C41.2307 29.5658 41.0966 29.6152 40.9952 29.7085C40.8939 29.8018 40.8337 29.9314 40.8276 30.069Z" fill="#D16A24"/>
<path id="Vector_33" d="M27.891 37.8759C32.6018 37.8759 36.4207 34.8901 36.4207 31.2069C36.4207 27.5237 32.6018 24.5379 27.891 24.5379C23.1802 24.5379 19.3614 27.5237 19.3614 31.2069C19.3614 34.8901 23.1802 37.8759 27.891 37.8759Z" fill="#F7BB38"/>
<path id="Vector_34" d="M33.7655 36.189C32.2359 37.2924 30.1931 37.9627 27.949 37.9627C23.2069 37.9627 19.3614 34.9572 19.3614 31.2483C19.3614 28.5559 21.389 26.2331 24.3173 25.1627C22.6124 26.3903 21.5448 28.1476 21.5448 30.1034C21.5448 33.811 25.3904 36.8179 30.1324 36.8179C31.3709 36.822 32.6005 36.6091 33.7655 36.189Z" fill="#E2A52B"/>
<path id="Vector_35" d="M44.2426 33.6768C46.3388 30.6484 44.8981 26.0199 41.0247 23.3388C37.1512 20.6577 32.3119 20.9393 30.2157 23.9678C28.1194 26.9962 29.5601 31.6247 33.4336 34.3058C37.307 36.9869 42.1463 36.7053 44.2426 33.6768Z" fill="#F7BB38"/>
<path id="Vector_36" d="M39.2249 36.2634C37.3393 36.2993 35.2759 35.6883 33.4318 34.4124C29.5324 31.7131 28.0814 27.0524 30.1931 24.0028C31.7242 21.7931 34.7145 21.0331 37.7311 21.8193C35.6304 21.8579 33.7531 22.6966 32.64 24.3021C30.5297 27.3503 31.9807 32.011 35.8786 34.7103C36.8947 35.4197 38.0272 35.9453 39.2249 36.2634Z" fill="#E2A52B"/>
<path id="Vector_37" d="M39.6248 41.0345V41.269C39.6248 41.7489 39.4342 42.2092 39.0948 42.5486C38.7554 42.888 38.2951 43.0786 37.8152 43.0786H37.2524C36.7733 43.0797 36.3142 43.2709 35.976 43.6102C35.6377 43.9495 35.4479 44.4092 35.4483 44.8883C35.4483 45.3682 35.639 45.8285 35.9783 46.1679C36.3177 46.5073 36.778 46.6979 37.2579 46.6979H44C44.2377 46.6977 44.4731 46.7444 44.6928 46.8353C44.9124 46.9262 45.112 47.0595 45.28 47.2276C45.4481 47.3956 45.5814 47.5952 45.6723 47.8148C45.7632 48.0345 45.8099 48.2699 45.8097 48.5076V49.0814C45.8106 49.3195 45.7644 49.5555 45.6739 49.7758C45.5833 49.9961 45.4501 50.1963 45.282 50.365C45.1138 50.5336 44.914 50.6674 44.694 50.7586C44.474 50.8499 44.2382 50.8967 44 50.8965H27.8469C27.6092 50.8967 27.3738 50.85 27.1542 50.7592C26.9345 50.6683 26.735 50.535 26.5669 50.3669C26.3988 50.1988 26.2655 49.9993 26.1746 49.7796C26.0838 49.56 26.0371 49.3246 26.0373 49.0869V48.7765C26.0371 48.5388 26.0838 48.3034 26.1746 48.0838C26.2655 47.8642 26.3988 47.6646 26.5669 47.4965C26.735 47.3284 26.9345 47.1952 27.1542 47.1043C27.3738 47.0134 27.6092 46.9667 27.8469 46.9669H28C28.2377 46.9671 28.4731 46.9204 28.6928 46.8295C28.9124 46.7386 29.112 46.6053 29.28 46.4373C29.4481 46.2692 29.5814 46.0696 29.6723 45.85C29.7632 45.6303 29.8099 45.3949 29.8097 45.1572V44.8938C29.8106 44.6556 29.7644 44.4196 29.6739 44.1994C29.5833 43.9791 29.4501 43.7789 29.282 43.6102C29.1138 43.4415 28.914 43.3077 28.694 43.2165C28.474 43.1253 28.2382 43.0784 28 43.0786H24.4911C24.0111 43.0786 23.5508 42.888 23.2114 42.5486C22.8721 42.2092 22.6814 41.7489 22.6814 41.269V41.0345C22.6818 40.5548 22.8726 40.0948 23.2119 39.7557C23.5513 39.4167 24.0113 39.2262 24.4911 39.2262H37.8152C38.2949 39.2262 38.755 39.4167 39.0943 39.7557C39.4337 40.0948 39.6245 40.5548 39.6248 41.0345Z" fill="#A01818"/>
</g>
</g>
<defs>
<clipPath id="clip0_1_118">
<rect width="64" height="64" fill="white"/>
</clipPath>
</defs>
</svg>
