<svg width="69" height="64" viewBox="0 0 69 64" fill="none" xmlns="http://www.w3.org/2000/svg">
<g id="Shopping" clip-path="url(#clip0_1_159)">
<path id="Vector" d="M14.5256 54.528C12.4933 54.528 10.8462 56.1389 10.8462 58.1253C10.8462 60.1129 12.4933 61.7226 14.5256 61.7226C16.5579 61.7226 18.205 60.1129 18.205 58.1253C18.205 56.1389 16.5579 54.528 14.5256 54.528ZM36.0139 54.528C33.9828 54.528 32.3357 56.1389 32.3357 58.1253C32.3357 60.1129 33.9828 61.7226 36.0139 61.7226C38.0462 61.7226 39.6933 60.1129 39.6933 58.1253C39.6933 56.1389 38.0462 54.528 36.0139 54.528ZM10.2823 16.902L16.8224 34.4115H43.1384L50.6119 16.902H10.2823Z" fill="#18CEF6"/>
<g id="Group">
<g id="Group_2">
<path id="Vector_2" d="M54.0414 0L42.3644 34.0299H11.8944L4.01273 12.3327H39.1656V9.59155H0.0435181L9.3682 35.2616L1.78359 48.1135H45.0065V45.3712H6.63431L11.7145 36.7674H44.3798L56.0568 2.73872H68.8302V0H54.0414ZM13.7093 50.5491C9.92488 50.5515 6.85771 53.5487 6.85529 57.2486C6.85771 60.9497 9.92488 63.9481 13.7093 63.9493C17.4926 63.9469 20.5585 60.9485 20.5585 57.2486C20.5585 53.5487 17.4926 50.5515 13.7093 50.5491ZM13.7093 61.2082C11.4717 61.2045 9.66405 59.4355 9.66042 57.2486C9.66405 55.0629 11.4717 53.2951 13.7093 53.2915C15.9421 53.2951 17.7534 55.0629 17.757 57.2486C17.7534 59.4367 15.9421 61.2045 13.7093 61.2082ZM35.1964 50.5491C31.412 50.5515 28.346 53.5487 28.3448 57.2486C28.346 60.9497 31.412 63.9481 35.1964 63.9493C38.9809 63.9469 42.0456 60.9485 42.048 57.2486C42.0456 53.5487 38.9809 50.5515 35.1964 50.5491ZM35.1964 61.2082C32.9613 61.2045 31.1523 59.4355 31.1487 57.2486C31.1523 55.0629 32.9613 53.2951 35.1964 53.2915C37.4316 53.2951 39.2417 55.0629 39.2453 57.2486C39.2417 59.4367 37.4316 61.2045 35.1964 61.2082Z" fill="white"/>
</g>
</g>
</g>
<defs>
<clipPath id="clip0_1_159">
<rect width="68.8302" height="64" fill="white"/>
</clipPath>
</defs>
</svg>
