<svg width="153" height="64" viewBox="0 0 153 64" fill="none" xmlns="http://www.w3.org/2000/svg">
<g id="Transportation">
<g id="Layer 6">
<path id="Vector" d="M42.5648 63.1854C50.383 63.1854 56.721 56.8475 56.721 49.0292C56.721 41.2109 50.383 34.873 42.5648 34.873C34.7465 34.873 28.4086 41.2109 28.4086 49.0292C28.4086 56.8475 34.7465 63.1854 42.5648 63.1854Z" fill="#464965"/>
<path id="Vector_2" d="M109.654 63.1854C117.472 63.1854 123.81 56.8475 123.81 49.0292C123.81 41.2109 117.472 34.873 109.654 34.873C101.836 34.873 95.4977 41.2109 95.4977 49.0292C95.4977 56.8475 101.836 63.1854 109.654 63.1854Z" fill="#464965"/>
<path id="Vector_3" d="M86.4457 1.83302H74.2509C68.5755 1.83324 63.0245 3.49575 58.2834 6.61524L41.765 17.4826C37.8977 20.0267 33.4518 21.5556 28.8376 21.928L23.8335 22.3316C20.6197 22.5908 17.5571 23.8065 15.0405 25.822C10.2555 29.6515 3.48459 37.0058 3.17508 48.1155C3.15956 48.8723 3.29558 49.6245 3.57513 50.3279C3.85468 51.0314 4.27211 51.6717 4.80285 52.2114C5.3336 52.7511 5.96693 53.1792 6.66558 53.4704C7.36424 53.7617 8.11409 53.9102 8.87102 53.9074H19.7319L86.4457 1.83302Z" fill="#464965"/>
<path id="Vector_4" d="M149.444 41.0346V37.0595L146.67 24.5728C146.06 23.9086 145.352 23.3404 144.572 22.8871C141.325 20.9389 138.338 18.5889 135.68 15.8929L129.944 10.2233C124.505 4.84782 117.166 1.83312 109.519 1.83302H85.1113C79.4355 1.83297 73.8839 3.49549 69.1424 6.61524L52.6241 17.4826C48.7567 20.0267 44.3108 21.5556 39.6966 21.928L34.6925 22.3316C31.4787 22.5908 28.4162 23.8065 25.8995 25.822C24.0629 27.2876 22.3742 28.9297 20.8578 30.7247L14.8723 42.1091C42.5648 49.8503 134.064 50.7659 149.444 41.0346Z" fill="white"/>
<path id="Vector_5" d="M149.444 44.6636V41.0346C145.448 41.7747 141.391 42.1346 137.327 42.1096H14.8746H14.8718C14.3688 44.0736 14.0876 46.0879 14.0336 48.1146C14.0182 48.8714 14.1542 49.6236 14.4338 50.3271C14.7134 51.0305 15.1309 51.6709 15.6617 52.2105C16.1925 52.7502 16.8258 53.1783 17.5245 53.4695C18.2232 53.7608 18.9731 53.9093 19.73 53.9065H137.728C137.728 53.9065 149.444 53.1257 149.444 44.6636Z" fill="#B8B8D3"/>
<path id="Vector_6" d="M56.721 62.0461C64.5393 62.0461 70.8773 55.7081 70.8773 47.8899C70.8773 40.0716 64.5393 33.7336 56.721 33.7336C48.9028 33.7336 42.5648 40.0716 42.5648 47.8899C42.5648 55.7081 48.9028 62.0461 56.721 62.0461Z" fill="#464965"/>
<path id="Vector_7" d="M56.721 55.9873C61.1931 55.9873 64.8185 52.362 64.8185 47.8899C64.8185 43.4177 61.1931 39.7924 56.721 39.7924C52.2489 39.7924 48.6236 43.4177 48.6236 47.8899C48.6236 52.362 52.2489 55.9873 56.721 55.9873Z" fill="white"/>
<path id="Vector_8" d="M127.451 62.0461C135.269 62.0461 141.607 55.7081 141.607 47.8899C141.607 40.0716 135.269 33.7336 127.451 33.7336C119.632 33.7336 113.294 40.0716 113.294 47.8899C113.294 55.7081 119.632 62.0461 127.451 62.0461Z" fill="#464965"/>
<path id="Vector_9" d="M127.451 55.9873C131.923 55.9873 135.548 52.362 135.548 47.8899C135.548 43.4177 131.923 39.7924 127.451 39.7924C122.979 39.7924 119.353 43.4177 119.353 47.8899C119.353 52.362 122.979 55.9873 127.451 55.9873Z" fill="white"/>
<path id="Vector_10" d="M14.8746 42.1096H22.8372C24.8537 42.1178 26.8097 41.4218 28.3678 40.1417C30.0339 38.7808 31.4976 37.1894 32.7149 35.4156C33.0205 34.9632 33.1973 34.4363 33.2262 33.8911C33.2551 33.346 33.1351 32.8033 32.8791 32.3211C32.6231 31.839 32.2406 31.4357 31.7728 31.1543C31.305 30.873 30.7694 30.7243 30.2235 30.7242H20.8592C18.0341 34.0213 15.9885 37.9129 14.8746 42.1096Z" fill="white"/>
<path id="Vector_11" d="M142.103 29.3564V32.2667C142.103 33.5379 142.608 34.757 143.507 35.6558C144.406 36.5546 145.625 37.0596 146.896 37.0596H149.445V31.3849C149.445 31.3849 149.352 27.4905 146.669 24.5737C145.439 24.6312 144.279 25.1602 143.428 26.0508C142.578 26.9414 142.104 28.1251 142.103 29.3564Z" fill="#F76B99"/>
<path id="Vector_12" d="M75.8452 22.2523H58.3056L67.8085 15.576L75.8452 22.2523Z" fill="#464965"/>
<path id="Vector_13" d="M108.998 22.2523H123.866C124.561 22.2527 125.242 22.0499 125.824 21.6689C126.406 21.2879 126.864 20.7451 127.142 20.1074C127.42 19.4697 127.505 18.7647 127.388 18.079C127.27 17.3933 126.955 16.7569 126.481 16.2478C125.454 15.1511 124.353 14.1259 123.186 13.1795L108.998 22.2523Z" fill="#464965"/>
<path id="Vector_14" d="M67.8085 15.5759C67.8085 15.5759 68.5851 17.7402 71.1669 20.3262C71.7822 20.9388 72.5122 21.4242 73.3152 21.7547C74.1181 22.0852 74.9784 22.2543 75.8467 22.2523H108.999C111.791 22.2676 114.53 21.498 116.905 20.0315C119.594 18.3741 121.769 16.0018 123.188 13.1795C123.188 13.1795 117.282 7.61607 110.863 7.61607H86.1905C81.6896 7.61609 77.2962 8.99121 73.5985 11.5573L67.8085 15.5759Z" fill="#464965"/>
<path id="Vector_15" d="M97.0893 7.42099H93.9052V22.4474H97.0893V7.42099Z" fill="#E4E4F9"/>
<path id="Vector_16" d="M100.274 22.2523H97.0898V53.9069H100.274V22.2523Z" fill="#B8B8D3"/>
<path id="Vector_17" d="M88.927 29.8012H85.1743C84.295 29.8012 83.5822 30.514 83.5822 31.3932C83.5822 32.2725 84.295 32.9853 85.1743 32.9853H88.927C89.8062 32.9853 90.519 32.2725 90.519 31.3932C90.519 30.514 89.8062 29.8012 88.927 29.8012Z" fill="#B8B8D3"/>
<path id="Vector_18" d="M145.373 21.5109C142.242 19.6324 139.361 17.3641 136.801 14.7604L131.065 9.09134C125.339 3.40376 117.59 0.220831 109.519 0.241384H74.2509C68.2633 0.236653 62.4062 1.99075 57.4068 5.28586L40.8884 16.1523C37.2431 18.5472 33.0543 19.9876 28.707 20.341L23.7028 20.7446C20.1715 21.0264 16.8063 22.3628 14.0439 24.5806C9.53363 28.1906 1.91664 36.0434 1.57979 48.0724C1.55074 49.0336 1.71638 49.9908 2.06673 50.8863C2.41709 51.7819 2.94493 52.5973 3.61852 53.2837C4.29861 53.9878 5.11404 54.5471 6.0158 54.928C6.91756 55.3089 7.88703 55.5036 8.86594 55.5003H42.9387C44.8861 59.0196 48.1076 61.6592 51.941 62.8765C55.7745 64.0938 59.9287 63.7963 63.5496 62.0452C67.1705 60.2941 69.983 57.2225 71.4091 53.4617C72.8351 49.7008 72.7662 45.5366 71.2167 41.825C69.6671 38.1133 66.7545 35.1363 63.0777 33.5059C59.4009 31.8755 55.2392 31.7155 51.448 33.0589C47.6569 34.4023 44.5244 37.1469 42.6945 40.7286C40.8646 44.3103 40.4763 48.457 41.6094 52.3162H19.7301C19.177 52.3184 18.6291 52.2087 18.1195 51.9937C17.6099 51.7787 17.149 51.4629 16.7646 51.0652C16.3887 50.6832 16.094 50.2292 15.898 49.7304C15.702 49.2317 15.609 48.6984 15.6243 48.1627C15.6647 46.6647 15.8352 45.1729 16.134 43.7044H22.8373C25.2246 43.7114 27.5397 42.886 29.3839 41.37C31.1653 39.9125 32.7308 38.2096 34.0336 36.3121C34.5012 35.6204 34.7717 34.8144 34.816 33.9806C34.8603 33.1468 34.6769 32.3167 34.2853 31.5792C33.8937 30.8418 33.3088 30.2248 32.5932 29.7945C31.8777 29.3643 31.0585 29.1368 30.2235 29.1367H24.5243C25.3213 28.3759 26.1192 27.6864 26.893 27.0674C29.1601 25.2483 31.9215 24.1523 34.819 23.9213L39.8236 23.5149C44.7042 23.1179 49.4068 21.5009 53.4994 18.8124L70.0177 7.94548C74.4976 4.99282 79.746 3.42096 85.1113 3.42505H109.519C116.75 3.4072 123.693 6.25945 128.824 11.3557L134.56 17.0253C137.208 19.7054 140.17 22.0561 143.381 24.0265C142.496 24.6052 141.77 25.3957 141.269 26.3262C140.767 27.2567 140.506 28.2978 140.508 29.355V32.2653C140.511 33.958 141.184 35.5807 142.381 36.7775C143.578 37.9744 145.201 38.6479 146.894 38.6502H147.851V44.6626C147.851 48.0149 145.498 49.9299 142.883 51.0262C143.36 48.6833 143.298 46.2623 142.701 43.9469C142.104 41.6315 140.988 39.4825 139.436 37.6627C137.885 35.8429 135.94 34.4003 133.749 33.4441C131.557 32.4879 129.176 32.0432 126.787 32.1439C124.398 32.2446 122.063 32.8879 119.96 34.0251C117.857 35.1623 116.04 36.7635 114.647 38.7073C113.255 40.6511 112.323 42.8865 111.923 45.2439C111.523 47.6014 111.665 50.019 112.338 52.3134H76.3689C75.9466 52.3134 75.5417 52.4812 75.2431 52.7797C74.9445 53.0783 74.7768 53.4832 74.7768 53.9055C74.7768 54.3277 74.9445 54.7327 75.2431 55.0312C75.5417 55.3298 75.9466 55.4975 76.3689 55.4975H113.668C115.06 58.0202 117.116 60.1127 119.615 61.5471C122.113 62.9814 124.957 63.7026 127.837 63.6322C130.717 63.5617 133.522 62.7022 135.948 61.1473C138.373 59.5924 140.325 57.4018 141.591 54.8141C147.681 53.178 151.037 49.5866 151.037 44.6626V31.3483C151.03 31.0777 150.821 24.6835 145.373 21.5109ZM56.721 35.3257C59.206 35.3258 61.6351 36.0627 63.7012 37.4433C65.7673 38.824 67.3776 40.7862 68.3285 43.0821C69.2793 45.3779 69.5281 47.9041 69.0432 50.3412C68.5584 52.7784 67.3617 55.0171 65.6046 56.7742C63.8475 58.5313 61.6087 59.7278 59.1715 60.2126C56.7343 60.6974 54.2081 60.4485 51.9124 59.4976C49.6166 58.5466 47.6544 56.9362 46.2738 54.8701C44.8933 52.8039 44.1564 50.3748 44.1564 47.8898C44.1601 44.5586 45.4851 41.365 47.8406 39.0095C50.1961 36.6541 53.3899 35.3292 56.721 35.3257ZM31.4722 33.0701C31.5961 33.2958 31.6545 33.5516 31.641 33.8087C31.6274 34.0658 31.5423 34.3141 31.3953 34.5255C30.2614 36.1729 28.8994 37.6512 27.3503 38.9162C26.0783 39.9594 24.4824 40.5265 22.8373 40.5198H17.007C18.0511 37.5417 19.6031 34.767 21.5941 32.3185H30.2217C30.4794 32.3149 30.7331 32.3833 30.954 32.5161C31.175 32.6489 31.3545 32.8408 31.4722 33.0701ZM12.4425 48.0724C12.3988 49.5845 12.8385 51.0711 13.6977 52.3162H8.86919C8.31608 52.3184 7.76825 52.2087 7.25863 51.9937C6.74902 51.7787 6.28815 51.4629 5.90376 51.0652C5.52786 50.6832 5.23307 50.2292 5.03711 49.7304C4.84115 49.2317 4.74807 48.6984 4.76346 48.1627C5.04795 37.9547 11.0488 31.0564 16.0326 27.0674C18.2999 25.2483 21.0614 24.1522 23.9591 23.9213L26.0274 23.7545C25.6443 24.0153 25.2685 24.2896 24.9034 24.5815C20.394 28.1887 12.7775 36.0415 12.4425 48.0724ZM68.2677 5.28679L51.7502 16.1523C48.269 18.4349 44.2911 19.849 40.1503 20.2761C41.0026 19.8301 41.8324 19.3423 42.6399 18.8129L59.1569 7.9464C62.7589 5.57269 66.8708 4.08365 71.1576 3.60066C70.1645 4.10952 69.1998 4.67193 68.2677 5.2854V5.28679ZM127.451 60.454C124.966 60.4539 122.537 59.7169 120.471 58.3363C118.404 56.9557 116.794 54.9934 115.843 52.6976C114.892 50.4018 114.644 47.8756 115.128 45.4384C115.613 43.0012 116.81 40.7625 118.567 39.0055C120.324 37.2484 122.563 36.0518 125 35.5671C127.437 35.0823 129.964 35.3311 132.259 36.2821C134.555 37.2331 136.517 38.8434 137.898 40.9096C139.278 42.9758 140.015 45.4049 140.015 47.8898C140.012 51.221 138.687 54.4147 136.331 56.7701C133.976 59.1256 130.782 60.4504 127.451 60.454ZM146.896 35.4693C146.047 35.4684 145.233 35.131 144.633 34.5309C144.033 33.9308 143.695 33.1172 143.694 32.2685V29.3582C143.692 28.6631 143.918 27.9864 144.337 27.4317C144.756 26.8771 145.345 26.4752 146.014 26.2876C147.075 27.791 147.71 29.5526 147.852 31.3867V35.4693H146.896Z" fill="#464965"/>
<path id="Vector_19" d="M56.721 57.5794C58.6374 57.5794 60.5108 57.0111 62.1042 55.9464C63.6977 54.8817 64.9396 53.3684 65.673 51.5979C66.4063 49.8273 66.5982 47.8791 66.2244 45.9995C65.8505 44.1199 64.9276 42.3934 63.5725 41.0383C62.2174 39.6832 60.4909 38.7603 58.6113 38.3865C56.7317 38.0126 54.7835 38.2045 53.013 38.9379C51.2424 39.6712 49.7291 40.9132 48.6644 42.5066C47.5997 44.1 47.0315 45.9734 47.0315 47.8898C47.0344 50.4587 48.0562 52.9216 49.8727 54.7381C51.6892 56.5546 54.1521 57.5764 56.721 57.5794ZM56.721 41.3844C58.0077 41.3843 59.2655 41.7658 60.3353 42.4805C61.4052 43.1953 62.2391 44.2113 62.7315 45.4C63.224 46.5887 63.3529 47.8967 63.1019 49.1587C62.851 50.4206 62.2314 51.5798 61.3216 52.4897C60.4119 53.3995 59.2527 54.0192 57.9908 54.2702C56.7288 54.5213 55.4208 54.3925 54.2321 53.9001C53.0433 53.4077 52.0273 52.5739 51.3124 51.5041C50.5976 50.4343 50.2161 49.1765 50.2161 47.8898C50.218 46.1652 50.904 44.5117 52.1234 43.2921C53.3429 42.0726 54.9963 41.3865 56.721 41.3844Z" fill="#464965"/>
<path id="Vector_20" d="M127.451 38.2003C125.534 38.2003 123.661 38.7686 122.067 39.8333C120.474 40.898 119.232 42.4113 118.499 44.1818C117.765 45.9523 117.573 47.9006 117.947 49.7802C118.321 51.6598 119.244 53.3863 120.599 54.7414C121.954 56.0965 123.681 57.0193 125.56 57.3932C127.44 57.7671 129.388 57.5752 131.159 56.8418C132.929 56.1084 134.442 54.8665 135.507 53.2731C136.572 51.6796 137.14 49.8062 137.14 47.8898C137.137 45.3209 136.116 42.8579 134.299 41.0414C132.483 39.2249 130.02 38.2031 127.451 38.2003ZM127.451 54.3952C126.164 54.3952 124.906 54.0137 123.836 53.2989C122.767 52.5841 121.933 51.5681 121.44 50.3793C120.948 49.1906 120.819 47.8826 121.07 46.6207C121.321 45.3588 121.941 44.1996 122.851 43.2898C123.76 42.38 124.92 41.7604 126.181 41.5094C127.443 41.2584 128.751 41.3872 129.94 41.8796C131.129 42.372 132.145 43.2058 132.86 44.2756C133.575 45.3454 133.956 46.6032 133.956 47.8898C133.954 49.6146 133.268 51.2681 132.048 52.4877C130.829 53.7073 129.175 54.3933 127.451 54.3952Z" fill="#464965"/>
<path id="Vector_21" d="M123.866 23.8444C124.872 23.8448 125.856 23.5514 126.697 23.0001C127.539 22.4488 128.201 21.6637 128.602 20.7413C129.004 19.8188 129.127 18.7992 128.957 17.8077C128.787 16.8162 128.33 15.8961 127.644 15.1603C126.583 14.0282 125.447 12.9688 124.244 11.9891C123.702 11.4859 117.656 6.024 110.861 6.024H86.1904C81.3641 6.01713 76.652 7.49198 72.6908 10.2493L66.8989 14.2679L66.8947 14.2716H66.891L57.3887 20.9475C57.1117 21.142 56.9039 21.4197 56.7955 21.7403C56.687 22.0608 56.6836 22.4076 56.7856 22.7303C56.8876 23.053 57.0897 23.3348 57.3627 23.5348C57.6357 23.7348 57.9654 23.8426 58.3038 23.8425L123.866 23.8444ZM125.685 19.4662C125.535 19.8235 125.281 20.1279 124.957 20.3406C124.633 20.5533 124.253 20.6646 123.866 20.6602H118.822C120.718 19.3051 122.339 17.6024 123.601 15.6426C124.199 16.1899 124.775 16.7547 125.318 17.3348C125.584 17.6134 125.761 17.9649 125.826 18.3446C125.892 18.7242 125.842 19.1147 125.685 19.4662ZM74.5066 12.8653C77.9349 10.4787 82.0132 9.20211 86.1904 9.20813H110.861C115.17 9.20813 119.357 12.1147 121.164 13.5525C119.892 15.6422 118.143 17.4002 116.059 18.6817C113.937 19.9909 111.491 20.6765 108.998 20.6602H75.8443C74.5146 20.6608 73.2383 20.1367 72.2928 19.2016C71.3515 18.2728 70.5301 17.2299 69.8477 16.0972L74.5066 12.8653ZM67.2344 17.9251C67.8358 18.8974 68.525 19.8124 69.2935 20.6589H63.3413L67.2344 17.9251Z" fill="#464965"/>
</g>
</g>
</svg>
