<svg width="60" height="64" viewBox="0 0 60 64" fill="none" xmlns="http://www.w3.org/2000/svg">
<g id="Travel">
<g id="Group">
<g id="Group_2">
<path id="Vector" d="M29.7033 62.9907C45.6263 62.9907 58.5343 50.0826 58.5343 34.1596C58.5343 18.2367 45.6263 5.32863 29.7033 5.32863C13.7804 5.32863 0.872314 18.2367 0.872314 34.1596C0.872314 50.0826 13.7804 62.9907 29.7033 62.9907Z" fill="#81CAFF"/>
<g id="Group_3">
<g id="Clip path group">
<mask id="mask0_1_43" style="mask-type:luminance" maskUnits="userSpaceOnUse" x="0" y="5" width="59" height="58">
<g id="SVGID_2_">
<path id="Vector_2" d="M29.7033 62.9907C45.6263 62.9907 58.5343 50.0826 58.5343 34.1596C58.5343 18.2367 45.6263 5.32863 29.7033 5.32863C13.7804 5.32863 0.872314 18.2367 0.872314 34.1596C0.872314 50.0826 13.7804 62.9907 29.7033 62.9907Z" fill="white"/>
</g>
</mask>
<g mask="url(#mask0_1_43)">
<path id="Vector_3" d="M18.3927 30.3894L27.9291 32.6072L34.028 39.7041L27.2638 44.3614L22.4956 50.0167L21.8302 58.5551L16.3967 48.9078L13.6245 38.2625L18.3927 30.3894Z" fill="#55AB99"/>
</g>
</g>
<g id="Clip path group_2">
<mask id="mask1_1_43" style="mask-type:luminance" maskUnits="userSpaceOnUse" x="0" y="5" width="59" height="58">
<g id="SVGID_2__2">
<path id="Vector_4" d="M29.7033 62.9907C45.6263 62.9907 58.5343 50.0826 58.5343 34.1596C58.5343 18.2367 45.6263 5.32863 29.7033 5.32863C13.7804 5.32863 0.872314 18.2367 0.872314 34.1596C0.872314 50.0826 13.7804 62.9907 29.7033 62.9907Z" fill="white"/>
</g>
</mask>
<g mask="url(#mask1_1_43)">
<path id="Vector_5" d="M17.9491 32.6072L16.7294 27.2846L20.3887 26.9519L20.7213 23.4035L25.6004 20.6312L30.3686 16.3066L29.1489 12.9799L25.8222 12.6473L25.6004 10.4295L15.066 -1.76824L7.74738 2.00197L2.86829 16.4175L17.9491 32.6072Z" fill="#55AB99"/>
</g>
</g>
<g id="Clip path group_3">
<mask id="mask2_1_43" style="mask-type:luminance" maskUnits="userSpaceOnUse" x="0" y="5" width="59" height="58">
<g id="SVGID_2__3">
<path id="Vector_6" d="M29.7033 62.9907C45.6263 62.9907 58.5343 50.0826 58.5343 34.1596C58.5343 18.2367 45.6263 5.32863 29.7033 5.32863C13.7804 5.32863 0.872314 18.2367 0.872314 34.1596C0.872314 50.0826 13.7804 62.9907 29.7033 62.9907Z" fill="white"/>
</g>
</mask>
<g mask="url(#mask2_1_43)">
<path id="Vector_7" d="M22.6065 12.2037L24.3807 15.1977L26.8203 15.4195L30.5905 9.32062L27.1529 9.09884L22.6065 12.2037Z" fill="#55AB99"/>
</g>
</g>
<g id="Clip path group_4">
<mask id="mask3_1_43" style="mask-type:luminance" maskUnits="userSpaceOnUse" x="0" y="5" width="59" height="58">
<g id="SVGID_2__4">
<path id="Vector_8" d="M29.7033 62.9907C45.6263 62.9907 58.5343 50.0826 58.5343 34.1596C58.5343 18.2367 45.6263 5.32863 29.7033 5.32863C13.7804 5.32863 0.872314 18.2367 0.872314 34.1596C0.872314 50.0826 13.7804 62.9907 29.7033 62.9907Z" fill="white"/>
</g>
</mask>
<g mask="url(#mask3_1_43)">
<path id="Vector_9" d="M44.7842 28.3934L42.012 30.9439L36.2458 27.1737L36.6893 23.9579L39.018 22.2946L43.8971 21.9619L42.012 17.5264L39.018 15.0868L43.4535 5.6613L63.6352 17.6373L62.1937 48.9078L41.6793 67.7589L39.4615 38.3734L42.4555 33.9379L46.2257 30.833L52.4355 28.3934L51.4375 25.3995L44.7842 28.3934Z" fill="#55AB99"/>
</g>
</g>
<g id="Clip path group_5">
<mask id="mask4_1_43" style="mask-type:luminance" maskUnits="userSpaceOnUse" x="0" y="5" width="59" height="58">
<g id="SVGID_2__5">
<path id="Vector_10" d="M29.7033 62.9907C45.6263 62.9907 58.5343 50.0826 58.5343 34.1596C58.5343 18.2367 45.6263 5.32863 29.7033 5.32863C13.7804 5.32863 0.872314 18.2367 0.872314 34.1596C0.872314 50.0826 13.7804 62.9907 29.7033 62.9907Z" fill="white"/>
</g>
</mask>
<g mask="url(#mask4_1_43)">
<path id="Vector_11" d="M35.3586 22.9599L29.9251 26.5083L29.5924 22.6272L33.6953 15.5304L36.3566 14.5324L35.3586 22.9599Z" fill="#55AB99"/>
</g>
</g>
</g>
</g>
<g id="Group_4">
<path id="Vector_12" d="M10.5196 22.849L46.4475 13.2017C48.6653 12.6473 52.5464 13.7562 53.2117 16.1957C53.7661 18.5244 50.7721 21.2966 48.5544 21.851L12.1829 29.5023L10.5196 22.849Z" fill="white"/>
<g id="Group_5">
<g id="Group_6">
<path id="Vector_13" d="M35.2477 22.9599C35.0259 24.0688 29.8142 44.3614 29.8142 44.3614L22.9391 46.69L24.048 25.3994L35.2477 22.9599Z" fill="white"/>
</g>
<g id="Group_7">
<path id="Vector_14" d="M33.8062 17.0828C33.1409 16.1957 19.2798 0.449532 19.2798 0.449532L12.072 1.55842L22.8282 20.0768L33.8062 17.0828Z" fill="white"/>
</g>
</g>
<path id="Vector_15" d="M3.8663 26.6192C3.53363 26.7301 3.31185 27.0628 3.42274 27.3954C3.53363 27.7281 3.86629 27.9499 4.19896 27.9499L15.066 25.3994C15.3987 25.2886 15.6205 24.9559 15.5096 24.6232C15.3987 24.2906 15.066 24.0688 14.7334 24.0688L3.8663 26.6192Z" fill="white"/>
<g id="Group_8">
<path id="Vector_16" d="M15.9532 24.845C15.6205 25.1777 9.7434 33.2725 9.7434 33.2725L4.42075 34.7141L7.41474 26.7301L15.9532 24.845Z" fill="white"/>
<path id="Vector_17" d="M15.2878 24.2906C14.8443 24.1797 5.86228 19.6332 5.86228 19.6332L0.428754 20.7421L6.7494 26.5083L15.2878 24.2906Z" fill="white"/>
</g>
</g>
</g>
</g>
</svg>
