<svg width="49" height="64" viewBox="0 0 49 64" fill="none" xmlns="http://www.w3.org/2000/svg">
<g id="Salary">
<g id="Budget">
<path id="Vector" d="M47.3043 51.4783C47.3043 62.3583 34.5183 64 23.6522 64C10.5878 64 0 61.4678 0 51.4783C0 43.5896 6.59478 27.367 15.7913 20.8696H31.513C40.7096 27.367 47.3043 43.5896 47.3043 51.4783Z" fill="#A87E6B"/>
<path id="Vector_2" d="M47.3043 51.4783C47.3707 53.0285 47.0656 54.5722 46.4146 55.9806C45.7636 57.3891 44.7855 58.6217 43.5617 59.5757C38.8824 60.8007 34.0525 61.3535 29.2174 61.2174C16.153 61.2174 5.56522 58.6852 5.56522 48.6957C5.56522 41.7391 10.6574 28.4104 18.087 20.8696H31.4852C40.7096 27.367 47.3043 43.5896 47.3043 51.4783Z" fill="#BE927C"/>
<path id="Vector_3" d="M35.8678 6.87304C32 13.0504 33.5443 10.6157 30.6087 15.3043H16.6957L11.4087 6.87304C11.0424 6.25841 10.8403 5.55994 10.8217 4.84467C10.8031 4.12941 10.9687 3.42138 11.3025 2.78855C11.6364 2.15572 12.1274 1.61934 12.7283 1.23091C13.3291 0.842485 14.0198 0.615047 14.7339 0.570435C16.6957 0.445217 16.6957 1.3913 18.7687 1.3913C21.2035 1.3913 21.2035 0 23.6383 0C26.073 0 26.087 1.3913 28.5217 1.3913C29.1754 1.40686 29.8235 1.26866 30.4139 0.987826C31.2227 0.579195 32.1425 0.444862 33.0343 0.605119C33.9262 0.765375 34.7417 1.21152 35.3576 1.87615C35.9735 2.54078 36.3564 3.3878 36.4485 4.28926C36.5405 5.19072 36.3367 6.09765 35.8678 6.87304Z" fill="#A87E6B"/>
<path id="Vector_4" d="M35.8678 6.87304L33.2104 11.1304C17.5583 11.1304 19.9096 12.4104 15.5826 5.48174C15.1241 4.74316 14.9182 3.8755 14.996 3.00965C15.0738 2.1438 15.4311 1.32674 16.0139 0.681739C16.9322 0.848696 17.1548 1.3913 18.7965 1.3913C21.2313 1.3913 21.2313 0 23.6661 0C26.1009 0 26.1148 1.3913 28.5496 1.3913C29.2199 1.40935 29.8843 1.26118 30.4835 0.96C31.293 0.57117 32.2064 0.45381 33.0879 0.625352C33.9694 0.796893 34.7721 1.24819 35.3768 1.91221C35.9814 2.57623 36.3558 3.41756 36.4442 4.31126C36.5327 5.20497 36.3306 6.10337 35.8678 6.87304Z" fill="#BE927C"/>
<path id="Vector_5" d="M44.5218 27.8261C44.1044 27.8261 43.9931 27.7287 42.7548 27.1026C39.207 25.3357 40.5287 22.2609 37.5652 21.7322L34.0174 21.0226C33.6484 20.9488 33.3238 20.7315 33.1151 20.4183C32.9064 20.1052 32.8306 19.722 32.9044 19.353C32.9782 18.9841 33.1955 18.6595 33.5086 18.4507C33.8217 18.242 34.2049 18.1662 34.5739 18.24C38.0939 18.9496 41.2383 19.1026 42.4765 22.8035C42.9357 24.1948 43.9513 24.5426 45.1478 25.1409C45.4623 25.2607 45.7226 25.4905 45.8807 25.7877C46.0387 26.0848 46.0836 26.4291 46.0072 26.7568C45.9308 27.0846 45.7382 27.3735 45.4651 27.5701C45.1919 27.7667 44.8568 27.8577 44.5218 27.8261Z" fill="#FFDE76"/>
<path id="Vector_6" d="M44.5218 18.087C42.8275 18.2773 41.1182 17.8953 39.6661 17.0017C39.049 16.5872 38.3225 16.3658 37.5792 16.3658C36.8358 16.3658 36.1093 16.5872 35.4922 17.0017L34.8522 17.4191C34.5467 17.583 34.1911 17.6269 33.8549 17.5423C33.5187 17.4577 33.2262 17.2506 33.0348 16.9616C32.8433 16.6726 32.7666 16.3226 32.8196 15.98C32.8727 15.6374 33.0518 15.327 33.3218 15.1096L33.9478 14.6922C35.0215 13.9642 36.2889 13.5751 37.5861 13.5751C38.8833 13.5751 40.1507 13.9642 41.2244 14.6922C42.2269 15.2516 43.3853 15.4666 44.5218 15.3043C44.8908 15.3043 45.2446 15.4509 45.5056 15.7118C45.7665 15.9728 45.9131 16.3267 45.9131 16.6956C45.9131 17.0646 45.7665 17.4185 45.5056 17.6794C45.2446 17.9404 44.8908 18.087 44.5218 18.087Z" fill="#FFDE76"/>
<path id="Vector_7" d="M34.7826 18.087C34.7826 18.825 34.4895 19.5327 33.9676 20.0546C33.4458 20.5764 32.738 20.8696 32 20.8696H15.3044C14.5664 20.8696 13.8586 20.5764 13.3368 20.0546C12.8149 19.5327 12.5218 18.825 12.5218 18.087C12.5218 17.349 12.8149 16.6412 13.3368 16.1194C13.8586 15.5975 14.5664 15.3043 15.3044 15.3043H32C32.738 15.3043 33.4458 15.5975 33.9676 16.1194C34.4895 16.6412 34.7826 17.349 34.7826 18.087Z" fill="#FFCC66"/>
<path id="Vector_8" d="M34.7826 18.087H19.4783C18.7403 18.087 18.0325 17.7938 17.5107 17.2719C16.9888 16.7501 16.6957 16.0423 16.6957 15.3043H32C32.738 15.3043 33.4458 15.5975 33.9676 16.1194C34.4895 16.6412 34.7826 17.349 34.7826 18.087Z" fill="#FFDE76"/>
</g>
</g>
</svg>
