<svg width="21" height="21" viewBox="0 0 21 21" fill="none" xmlns="http://www.w3.org/2000/svg">
<g id="Dashboard Icon" clip-path="url(#clip0_33_226)">
<g id="Group">
<path id="Vector" d="M12.635 11.1721H19.6702C20.0001 11.1721 20.2997 11.3064 20.5162 11.5233C20.7329 11.7398 20.8676 12.0394 20.8676 12.3693V19.3738C20.8676 19.7035 20.7329 20.0034 20.5162 20.2196C20.2997 20.4364 20.0001 20.5711 19.6702 20.5711H12.635C12.3052 20.5711 12.0056 20.4364 11.7889 20.2196C11.5724 20.0034 11.4377 19.7035 11.4377 19.3738V12.3695C11.4377 12.0396 11.5724 11.74 11.7889 11.5235C12.0056 11.3064 12.3052 11.1721 12.635 11.1721ZM1.19759 0H8.23265C8.56244 0 8.86218 0.134499 9.07887 0.351362C9.29557 0.568226 9.43007 0.867622 9.43007 1.19759V8.20191C9.43007 8.53187 9.29557 8.83144 9.07887 9.04796C8.86218 9.26466 8.56244 9.39933 8.23265 9.39933H1.19759C0.869151 9.39933 0.570603 9.26466 0.35374 9.04796L0.352551 9.04694L0.351362 9.04796C0.134499 8.83127 0 8.5317 0 8.20174V1.19759C0 0.867622 0.134499 0.568056 0.351362 0.351362C0.367156 0.335569 0.383799 0.320625 0.400611 0.306869C0.612549 0.116328 0.892416 0 1.19759 0ZM8.17372 1.25618H1.25618V8.14298H8.17355L8.17372 1.25618ZM12.635 0H19.6702C20.0001 0 20.2997 0.134499 20.5162 0.351362C20.7329 0.568056 20.8676 0.867622 20.8676 1.19759V8.20191C20.8676 8.53187 20.7329 8.83144 20.5162 9.04796C20.2997 9.26466 20.0001 9.39933 19.6702 9.39933H12.635C12.3052 9.39933 12.0056 9.26466 11.7889 9.04796C11.5724 8.83144 11.4377 8.5317 11.4377 8.20191V1.19759C11.4377 0.867622 11.5724 0.568056 11.7889 0.351362C12.0056 0.134499 12.3052 0 12.635 0ZM19.6114 1.25618H12.6939V8.14298H19.6114V1.25618ZM1.19759 11.1721H8.23265C8.56244 11.1721 8.86218 11.3064 9.07887 11.5233C9.29557 11.7398 9.43007 12.0394 9.43007 12.3693V19.3738C9.43007 19.7035 9.29557 20.0034 9.07887 20.2196C8.86218 20.4364 8.56244 20.5711 8.23265 20.5711H1.19759C0.869151 20.5711 0.570603 20.4364 0.35374 20.2196L0.352551 20.2185L0.351362 20.2196C0.134499 20.0035 0 19.7036 0 19.374V12.3695C0 12.0396 0.134499 11.74 0.351362 11.5235C0.367156 11.5075 0.383798 11.4926 0.400781 11.4786C0.612549 11.2883 0.892416 11.1721 1.19759 11.1721ZM8.17372 12.4283H1.25618V19.3151H8.17355L8.17372 12.4283ZM19.6114 12.4283H12.6939V19.3151H19.6114V12.4283Z" fill="#87E9FF"/>
</g>
</g>
<defs>
<clipPath id="clip0_33_226">
<rect width="20.8678" height="20.5714" fill="white"/>
</clipPath>
</defs>
</svg>
