<svg width="25" height="18" viewBox="0 0 25 18" fill="none" xmlns="http://www.w3.org/2000/svg">
<g id="Statistics Icon" clip-path="url(#clip0_33_211)">
<g id="Group">
<path id="Vector" d="M0.425337 17.1429C0.190128 17.1429 0 16.9645 0 16.743C0 16.5215 0.190128 16.3431 0.425337 16.3431H2.22077V4.0358C2.22077 3.9084 2.27369 3.79079 2.35798 3.70651C2.44422 3.62027 2.55986 3.56735 2.68727 3.56735H5.23929C5.36866 3.56735 5.4843 3.62027 5.56859 3.70651C5.65287 3.79079 5.70579 3.9084 5.70579 4.0358V16.3412H7.60511V7.60511C7.60511 7.4777 7.65803 7.36206 7.74231 7.27582C7.8266 7.19153 7.9442 7.13861 8.06965 7.13861H10.6217C10.753 7.13861 10.8686 7.19153 10.951 7.27582C11.0352 7.3601 11.0882 7.47966 11.0882 7.60511V16.3412H12.9875V0.466499C12.9875 0.339094 13.0404 0.223449 13.1247 0.137206C13.2149 0.0529221 13.3305 0 13.4599 0H16.0119C16.1413 0 16.2569 0.0529221 16.3412 0.137206C16.4255 0.221489 16.4784 0.341054 16.4784 0.466499V16.3412H18.3777V5.05701C18.3777 4.9296 18.4306 4.812 18.5149 4.72771C18.5992 4.64343 18.7168 4.59051 18.8462 4.59051H21.3982C21.5276 4.59051 21.6452 4.64343 21.7275 4.72771C21.8118 4.812 21.8647 4.9296 21.8647 5.05701V16.3431H23.6601C23.8953 16.3431 24.0855 16.5215 24.0855 16.743C24.0855 16.9645 23.8953 17.1429 23.6601 17.1429H21.4511C21.4472 17.1429 21.4433 17.1429 21.4394 17.1429H18.805C18.8011 17.1429 18.7972 17.1429 18.7932 17.1429H16.0648C16.0609 17.1429 16.057 17.1429 16.0531 17.1429H13.4187C13.4148 17.1429 13.4109 17.1429 13.4069 17.1429H10.6805C10.6766 17.1429 10.6726 17.1429 10.6687 17.1429H8.03241C8.02849 17.1429 8.02457 17.1429 8.02065 17.1429H5.29222H5.28045H2.64611H2.63435H0.425337ZM4.85512 4.41998H3.07144V16.2902H4.85512V4.41998ZM10.2414 7.98928H8.45774V16.2902H10.2414V7.98928ZM15.6277 0.850675H13.844V16.2902H15.6277V0.850675ZM21.0121 5.44118H19.2284V16.2922H21.0121V5.44118Z" fill="url(#paint0_linear_33_211)"/>
</g>
</g>
<defs>
<linearGradient id="paint0_linear_33_211" x1="5.53283e-07" y1="0.249552" x2="24.0855" y2="16.8933" gradientUnits="userSpaceOnUse">
<stop stop-color="#B8DBD9"/>
<stop offset="1" stop-color="#CACACA"/>
</linearGradient>
<clipPath id="clip0_33_211">
<rect width="24.0855" height="17.1429" fill="white"/>
</clipPath>
</defs>
</svg>
